<svg width="22" height="22" viewBox="0 0 22 22" fill="none" xmlns="http://www.w3.org/2000/svg">
<path fill-rule="evenodd" clip-rule="evenodd" d="M5.9097 4.12559C5.75255 3.6821 5.12537 3.6821 4.96822 4.12559L4.60385 5.15392C4.55355 5.29588 4.44187 5.40756 4.29991 5.45786L3.27158 5.82223C2.82809 5.97938 2.82809 6.60656 3.27158 6.76371L4.29991 7.12808C4.44187 7.17838 4.55355 7.29006 4.60385 7.43202L4.96822 8.46035C5.12537 8.90384 5.75255 8.90384 5.9097 8.46035L6.27407 7.43202C6.32437 7.29006 6.43605 7.17838 6.57801 7.12808L7.60634 6.76371C8.04983 6.60656 8.04983 5.97938 7.60634 5.82223L6.57801 5.45786C6.43605 5.40756 6.32437 5.29588 6.27407 5.15392L5.9097 4.12559Z" fill="#B2B1B2"/>
<path d="M17.2441 4.39701C17.1255 4.38476 17.0056 4.40047 16.8942 4.44288C16.7827 4.48529 16.6828 4.55322 16.6023 4.64122C16.524 4.72681 16.4663 4.82906 16.4335 4.94021L15.5971 7.50098H12.4167L11.5801 4.93985C11.5472 4.82877 11.4893 4.72661 11.411 4.64113C11.3305 4.55337 11.2307 4.48562 11.1194 4.44329C11.0082 4.40096 10.8886 4.3852 10.7701 4.39729C10.652 4.40935 10.5383 4.44879 10.438 4.51246C10.3025 4.5982 10.1976 4.72479 10.1387 4.87398L10.1372 4.87788L8.90268 8.10012C9.19378 8.04632 9.49224 8.01354 9.79644 8.00339L10.8451 5.26614L11.8311 8.28454C11.848 8.28994 11.8648 8.29542 11.8816 8.30098H16.1773L17.1687 5.2661L18.5043 8.75006L18.5053 8.7528L18.5179 8.7864L18.5188 8.78876C18.6856 9.22513 18.706 9.70388 18.577 10.1529C18.448 10.6018 18.1765 10.9967 17.8035 11.2779L17.7988 11.2816L17.7958 11.2838L15.8651 12.7289C15.9287 13.024 15.9707 13.3271 15.9892 13.6366L16.1704 13.4997L16.1718 13.4986L18.2781 11.9221L18.284 11.9176L18.2876 11.9149C18.7978 11.5293 19.1692 10.9885 19.3459 10.3738C19.5227 9.75853 19.4949 9.10247 19.2666 8.50439L19.2661 8.50315L19.2534 8.46917L19.2523 8.46643L17.8766 4.8778L17.8751 4.87398C17.8162 4.72495 17.7115 4.59846 17.5762 4.51273C17.476 4.44885 17.3623 4.40922 17.2441 4.39701Z" fill="#B2B1B2"/>
<path fill-rule="evenodd" clip-rule="evenodd" d="M9.99995 17.9992C12.2091 17.9992 14 16.2084 14 13.9992C14 11.7901 12.2091 9.99922 9.99995 9.99922C7.79081 9.99922 5.99995 11.7901 5.99995 13.9992C5.99995 16.2084 7.79081 17.9992 9.99995 17.9992ZM9.99995 18.7992C12.6509 18.7992 14.8 16.6502 14.8 13.9992C14.8 11.3483 12.6509 9.19922 9.99995 9.19922C7.34898 9.19922 5.19995 11.3483 5.19995 13.9992C5.19995 16.6502 7.34898 18.7992 9.99995 18.7992Z" fill="#B2B1B2"/>
<rect x="7.49988" y="13.625" width="1" height="1" fill="#B2B1B2"/>
<path d="M9.49988 13.625H10.4999V14.625H9.49988V13.625Z" fill="#B2B1B2"/>
<rect x="11.4999" y="13.625" width="1" height="1" fill="#B2B1B2"/>
</svg>
