<svg width="22" height="22" viewBox="0 0 22 22" fill="none" xmlns="http://www.w3.org/2000/svg">
<path fill-rule="evenodd" clip-rule="evenodd" d="M5.9098 4.12559C5.75265 3.6821 5.12547 3.6821 4.96832 4.12559L4.60395 5.15392C4.55365 5.29588 4.44197 5.40756 4.30001 5.45786L3.27167 5.82223C2.82818 5.97938 2.82818 6.60656 3.27167 6.76371L4.30001 7.12808C4.44197 7.17838 4.55365 7.29006 4.60395 7.43202L4.96832 8.46035C5.12547 8.90384 5.75265 8.90384 5.9098 8.46035L6.27417 7.43202C6.32447 7.29006 6.43615 7.17838 6.57811 7.12808L7.60644 6.76371C8.04993 6.60656 8.04993 5.97938 7.60644 5.82223L6.57811 5.45786C6.43615 5.40756 6.32447 5.29588 6.27417 5.15392L5.9098 4.12559Z" fill="#B2B1B2"/>
<rect x="20.1897" y="3.4393" width="0.755698" height="17.5462" transform="rotate(45 20.1897 3.4393)" fill="#B2B1B2"/>
<path d="M14.3911 7.50097H12.4167L11.5801 4.93985C11.5472 4.82877 11.4893 4.72661 11.411 4.64112C11.3305 4.55337 11.2307 4.48562 11.1194 4.44329C11.0082 4.40095 10.8886 4.3852 10.7701 4.39729C10.652 4.40935 10.5383 4.44879 10.438 4.51246C10.3025 4.5982 10.1977 4.72479 10.1387 4.87397L10.1372 4.87788L8.76311 8.46442L8.74992 8.49739L8.74773 8.50301C8.51875 9.10144 8.49054 9.75809 8.66735 10.374C8.84416 10.9898 9.21641 11.5315 9.72797 11.9173L9.72885 11.918L9.73122 11.9198L9.74013 11.9267L9.74582 11.931L9.86881 12.0232L10.4403 11.4518L10.2285 11.293L10.2196 11.2861L10.214 11.2819L10.2097 11.2786C9.83686 10.9973 9.56518 10.6021 9.43629 10.1532C9.30762 9.70503 9.32784 9.22725 9.49387 8.7916L9.50698 8.75882L9.50911 8.75337L10.8451 5.26614L11.8364 8.30097H13.5911L14.3911 7.50097Z" fill="#B2B1B2"/>
<path d="M18.2763 8.1553L18.8956 7.53597L19.2534 8.46916L19.2661 8.50315L19.2666 8.50439C19.4949 9.10247 19.5227 9.75853 19.3459 10.3738C19.1692 10.9885 18.7978 11.5293 18.2876 11.9149L18.2782 11.9222L16.1718 13.4986L16.1704 13.4997L14.5029 14.76C14.3594 14.8684 14.1844 14.9271 14.0046 14.9271C13.8249 14.9271 13.65 14.8685 13.5065 14.7602L12.4615 13.9701L13.0326 13.399L13.9887 14.1218C13.9933 14.1252 13.9989 14.1271 14.0046 14.1271C14.0103 14.1271 14.0159 14.1253 14.0204 14.1219L15.6895 12.8603L15.691 12.8592L17.7958 11.2838L17.8035 11.2779C18.1765 10.9967 18.448 10.6018 18.577 10.1529C18.706 9.70388 18.6856 9.22513 18.5188 8.78876L18.5179 8.7864L18.5053 8.7528L18.5043 8.75006L18.2763 8.1553Z" fill="#B2B1B2"/>
</svg>
