<svg width="22" height="22" viewBox="0 0 22 22" fill="none" xmlns="http://www.w3.org/2000/svg">
<path fill-rule="evenodd" clip-rule="evenodd" d="M5.9097 4.12356C5.75255 3.68007 5.12537 3.68007 4.96822 4.12356L4.60385 5.15189C4.55355 5.29385 4.44187 5.40553 4.29991 5.45583L3.27158 5.8202C2.82809 5.97735 2.82809 6.60453 3.27158 6.76168L4.29991 7.12605C4.44187 7.17635 4.55355 7.28803 4.60385 7.42999L4.96822 8.45832C5.12537 8.90181 5.75255 8.90181 5.9097 8.45832L6.27407 7.42999C6.32437 7.28803 6.43605 7.17635 6.57801 7.12605L7.60634 6.76168C8.04983 6.60453 8.04983 5.97735 7.60634 5.8202L6.57801 5.45583C6.43605 5.40553 6.32437 5.29385 6.27407 5.15189L5.9097 4.12356ZM6.96823 13.1235C7.12537 12.68 7.75255 12.68 7.9097 13.1235L8.27408 14.1519C8.32438 14.2938 8.43605 14.4055 8.57801 14.4558L9.60634 14.8202C10.0498 14.9773 10.0498 15.6045 9.60634 15.7616L8.57801 16.126C8.43605 16.1763 8.32438 16.288 8.27408 16.4299L7.9097 17.4583C7.75255 17.9018 7.12537 17.9018 6.96823 17.4583L6.60385 16.4299C6.55356 16.288 6.44187 16.1763 6.29991 16.126L5.27158 15.7616C4.82809 15.6045 4.82809 14.9773 5.27158 14.8202L6.29991 14.4558C6.44187 14.4055 6.55356 14.2938 6.60385 14.1519L6.96823 13.1235Z" fill="#B2B1B2"/>
<path fill-rule="evenodd" clip-rule="evenodd" d="M16.8942 4.44085C17.0056 4.39844 17.1255 4.38273 17.2441 4.39499C17.3623 4.40719 17.476 4.44682 17.5762 4.5107C17.7115 4.59643 17.8162 4.72292 17.8751 4.87195L17.8766 4.87576L19.2534 8.46714L19.2661 8.50112C19.2663 8.50153 19.2664 8.50195 19.2666 8.50236C19.4949 9.10044 19.5227 9.7565 19.3459 10.3718C19.1692 10.9865 18.7978 11.5273 18.2876 11.9128L18.2782 11.9201L16.1718 13.4965L16.1704 13.4976L14.5029 14.758C14.3594 14.8664 14.1844 14.9251 14.0046 14.9251C13.8249 14.9251 13.65 14.8665 13.5065 14.7581L11.8387 13.4975L11.8374 13.4965L9.74009 11.9247L9.73122 11.9177L9.72885 11.916L9.72797 11.9153C9.21641 11.5295 8.84416 10.9878 8.66735 10.3719C8.49054 9.75606 8.51875 9.09941 8.74773 8.50098L8.74988 8.49535L8.76311 8.4624L10.1387 4.87194C10.1976 4.72276 10.3025 4.59617 10.438 4.51044C10.5383 4.44676 10.652 4.40732 10.7701 4.39526C10.8886 4.38317 11.0082 4.39893 11.1194 4.44126C11.2307 4.48359 11.3305 4.55134 11.411 4.6391C11.4893 4.72458 11.5472 4.82674 11.5801 4.93782L12.4167 7.49895H15.5971L16.4335 4.93818C16.4663 4.82703 16.524 4.72478 16.6023 4.63919C16.6828 4.55119 16.7827 4.48326 16.8942 4.44085ZM17.1687 5.26407L16.1773 8.29895H11.8364L10.8451 5.26411L9.50702 8.75681L9.49387 8.78957C9.32784 9.22522 9.30762 9.70301 9.43629 10.1512C9.56518 10.6001 9.83648 10.995 10.2093 11.2763C10.2092 11.2762 10.2094 11.2764 10.2093 11.2763L10.2196 11.2841L10.2285 11.291L12.3197 12.8583L13.9887 14.1198C13.9887 14.1198 13.9888 14.1198 13.9887 14.1198C13.9933 14.1232 13.9989 14.1251 14.0046 14.1251C14.0103 14.1251 14.0159 14.1232 14.0204 14.1198C14.0204 14.1198 14.0205 14.1198 14.0204 14.1198L15.6895 12.8583L15.691 12.8572L17.7958 11.2818L17.8035 11.2759C18.1765 10.9946 18.448 10.5998 18.577 10.1508C18.706 9.70185 18.6856 9.2231 18.5188 8.78674L18.5179 8.78438L18.5053 8.75077L18.5043 8.74803L17.1687 5.26407Z" fill="#B2B1B2"/>
</svg>
