<svg width="24" height="24" viewBox="0 0 24 24" fill="none" xmlns="http://www.w3.org/2000/svg">
<path fill-rule="evenodd" clip-rule="evenodd" d="M3.75 1.125C3.75 0.710786 3.41421 0.375 3 0.375C2.58579 0.375 2.25 0.710786 2.25 1.125V2.25H1.125C0.710786 2.25 0.375 2.58579 0.375 3C0.375 3.41421 0.710786 3.75 1.125 3.75H2.25V4.875C2.25 5.28921 2.58579 5.625 3 5.625C3.41421 5.625 3.75 5.28921 3.75 4.875V3.75H4.875C5.28921 3.75 5.625 3.41421 5.625 3C5.625 2.58579 5.28921 2.25 4.875 2.25H3.75V1.125ZM22.295 10.0402L22.295 10.0402L22.2726 9.98027L20.69 5.83431L19.7751 8.64714L19.4381 9.68319H18.3487H11.6519H10.5625L10.2255 8.64714L9.31088 5.83511L7.72726 9.98629L7.72336 9.99653L7.7193 10.0067L7.69846 10.059C7.46462 10.6789 7.43658 11.3585 7.61883 11.996C7.80183 12.6362 8.1866 13.1981 8.71386 13.5979L8.71526 13.599L8.72121 13.6035L8.73175 13.6114L8.74214 13.6195L8.75238 13.6275L12.4685 16.4245L12.4732 16.428L14.3221 17.8311L14.3226 17.8314L14.9963 18.343L15.67 17.8314L15.6704 17.8311L17.5193 16.428L17.5248 16.4239L17.5248 16.4239L21.2665 13.6115L21.2671 13.611L21.2754 13.6045L21.2844 13.5977C21.8123 13.1979 22.1977 12.6358 22.3809 11.9952L23.8231 12.4079C23.5506 13.3599 22.9774 14.1972 22.1899 14.7936L22.1795 14.8017L18.4261 17.6229L16.5771 19.026L15.4539 19.879C15.3221 19.979 15.1614 20.0331 14.9963 20.0331C14.8311 20.0331 14.6704 19.979 14.5386 19.879L13.4154 19.026L11.5664 17.6229L7.83962 14.8179L7.81882 14.8017L7.80957 14.7947C7.02196 14.1982 6.44883 13.3606 6.17661 12.4083C5.90438 11.4561 5.94781 10.4408 6.30036 9.51547L6.32578 9.45165L8.57203 3.56349L8.57233 3.56271L8.57253 3.5622L8.59829 3.49467L8.7745 3.03276C8.82409 2.90675 8.91232 2.79985 9.02642 2.72755C9.11162 2.67306 9.20832 2.63932 9.3088 2.62902C9.40929 2.61872 9.51078 2.63215 9.60518 2.66822C9.69958 2.70429 9.78429 2.76202 9.85254 2.8368C9.92079 2.91157 9.9707 3.00133 9.99828 3.09891L10.1471 3.55638L10.1532 3.5753L10.162 3.60234L10.1623 3.60324L11.6519 8.18319H18.3487L19.8383 3.60323L19.8386 3.60235L19.8474 3.5753L19.8534 3.55677L20.0023 3.09891C20.0297 3.00119 20.0795 2.91126 20.1477 2.83634C20.2159 2.76142 20.3007 2.70359 20.3951 2.66748C20.4896 2.63138 20.5912 2.61801 20.6918 2.62844C20.7923 2.63887 20.889 2.67281 20.9742 2.72755C21.0883 2.79985 21.1765 2.90675 21.2261 3.03276L21.4009 3.49065L21.4281 3.56187L21.4284 3.56275L21.4286 3.5633L23.676 9.45049L23.7002 9.51547C24.0524 10.4407 24.0955 11.4559 23.8231 12.4079L22.381 11.9952C22.5643 11.3546 22.5352 10.6714 22.2983 10.049L22.295 10.0402ZM5.25 16.875C5.66421 16.875 6 17.2108 6 17.625V19.5H7.875C8.28921 19.5 8.625 19.8358 8.625 20.25C8.625 20.6642 8.28921 21 7.875 21H6V22.875C6 23.2892 5.66421 23.625 5.25 23.625C4.83579 23.625 4.5 23.2892 4.5 22.875V21H2.625C2.21079 21 1.875 20.6642 1.875 20.25C1.875 19.8358 2.21079 19.5 2.625 19.5H4.5V17.625C4.5 17.2108 4.83579 16.875 5.25 16.875Z" fill="black"/>
</svg>
